<svg width="832" height="188" viewBox="0 0 832 188" fill="none" xmlns="http://www.w3.org/2000/svg">
<path d="M-109 2C-99.437 12.7584 -93.2363 25.6986 -81.2849 34.9942C-58.6282 52.616 -27.8294 65.6674 0.540588 70.9211C14.8847 73.5774 27.3725 75.9069 42.1132 75.9069C54.4398 75.9069 66.1939 77.2267 78.4068 77.2267C82.9715 77.2267 90.36 78.2476 93.9507 81.4792C97.5408 84.7103 96.3926 92.4532 91.6044 93.1372C87.4675 93.7282 58.5633 98.3991 64.1826 87.7848C65.8506 84.6342 75.2267 85.1453 78.4068 85.1453C84.3482 85.1453 91.2275 85.0988 92.8509 92.404C94.4364 99.539 91.7689 102.995 85.2989 105.235C82.4048 106.237 71.7511 110.15 69.1684 106.921C62.3769 98.432 84.227 98.5953 88.6716 102.596C91.5454 105.182 93.5744 112.163 87.6452 112.86C83.8403 113.308 77.9102 113.337 73.7876 114.253C67.2373 115.709 77 113.885 77 119.5C77 124.386 62.492 135.172 60.2233 139.256C57.4809 144.192 55.9708 150.237 55.9708 155.826C55.9708 164.098 55.429 164.929 60.9565 169.904C63.9867 172.631 67.0002 172.889 71.5 174.889C75.422 176.632 78.5986 174.889 83.026 174.889C92.9911 174.889 94.244 156.838 94.244 149.814C94.244 145.819 93.2271 137.151 91.6044 133.5C90.2633 130.482 88.9649 125.99 88.9649 122.759C88.9649 120.684 87.2017 118.78 88.9649 117.846C90.7595 116.896 93.2196 115.791 94.5373 114.473C96.12 112.891 97.0716 111.615 98.2033 109.634C99.044 108.163 99.0671 104.515 100.183 103.622C102.654 101.645 100.242 92.7988 100.916 89.7644C102.078 84.5353 106.761 82.5057 111.401 82.5057C122.203 82.5057 133.006 82.5057 143.809 82.5057C157.865 82.5057 171.609 79.8662 185.601 79.8662C197.723 79.8662 209.846 79.8662 221.968 79.8662C225.736 79.8662 247.935 87.0404 241.325 93.6504C236.953 98.0221 214.343 102.854 214.343 93.0639C214.343 83.2537 232.819 93.222 232.819 101.642C232.819 107.266 232.031 112.86 226.807 112.86C224.388 112.86 216.322 112.86 216.322 107.581C214.343 112.86 208.707 106.08 212.436 105.015C215.634 104.102 223.61 104.102 226.807 105.015C230.714 106.131 235.104 113.802 231.793 117.113C226.214 122.692 216.322 110.601 216.322 125C216.322 131.002 207 133.5 204.5 143.875C202 154.25 197.5 160.281 197.5 169.904C206.064 182.404 224.753 188.969 229.153 180.168C234.182 170.111 231.5 154.977 231.5 143.875C231.5 139.19 229.124 134.437 230.253 129.357C230.626 127.681 235.579 121.635 237.5 119.5C245.344 110.784 232.819 101.642 247.337 91.0842C247.337 86.6282 238.823 87.1937 245.284 90.4243C254.317 94.9408 267.989 94.0089 277.618 92.404C292.834 89.868 308.198 90.9944 323.59 90.4243C344.041 89.6669 363.751 82.9171 383.419 78.5464C396.363 75.6702 408.237 74.5871 421.546 74.5871C426.972 74.5871 441.926 73.702 445.008 79.8662C446.043 81.9362 435.265 89.1565 433.424 90.1311C428.321 92.8327 424.248 93.0639 418.247 93.0639C412.693 93.0639 413.955 86.465 419.566 86.465C425.61 86.465 431.22 84.8029 437.383 85.1453C444.074 85.517 442.903 93.7634 442.662 98.3429C442.23 106.548 432.276 107.581 426.165 107.581C424.197 107.581 420.316 108.371 419.2 106.262C418.241 104.451 418.548 100.256 420.886 99.736C425.925 98.6162 432.214 99.6627 437.383 99.6627C442.794 99.6627 446.837 105.179 445.228 110.807C444.746 112.497 438.284 117.873 436 118C429.91 118.338 418.89 116.697 414.947 122.392C410.441 128.901 407.349 136.165 405.635 143.875C403.351 154.154 402.583 176.794 414.947 182C431.142 188.819 437.841 187.463 443.322 176.5C445.58 171.984 442.662 145.645 442.662 140.575C442.662 137.465 440.945 126.64 443.322 124.738C446.719 122.021 444.097 119.759 447.5 117.113C449.774 115.345 451.134 113.048 452.927 110.807C454.784 108.486 448.206 101.416 449.5 98.3429C452.35 91.5737 455.162 83.3299 452.927 77.52C450.985 72.4718 444.302 69.3081 439.363 69.3081C436.044 69.3081 426.234 74.3785 431.444 78.5464C437.331 83.256 445.353 85.1453 453.22 85.1453C463.559 85.1453 473.897 85.1453 484.235 85.1453C495.603 85.1453 509.299 85.4529 520.235 82.2124C534.461 77.9972 546.809 67.907 561.148 64.3223C567.568 62.7173 573.456 54.7906 579.331 54.7906C589.195 54.7906 598.18 50.8313 607.633 50.8313C612.912 50.8313 618.191 50.8313 623.47 50.8313C626.608 50.8313 630.314 50.2259 633.368 50.9047C635.662 51.4143 637.758 53.4709 639.967 53.4709C655.667 53.4709 674.9 57.3889 686.232 68.7215C701.204 83.6936 675.097 81.7386 665.703 81.186C662.897 81.0209 661.166 70.821 665.996 70.6278C670.206 70.4594 678.889 69.4433 682.126 72.6808C684.947 75.501 685.634 83.0611 682.2 85.7318C680.14 87.3337 669.534 89.7101 667.316 87.4915C664.33 84.506 678.293 85.4131 679.487 85.0719C681.569 84.4772 682.86 82.6775 682.86 86.465C682.86 88.6274 683.594 92.4419 682.566 94.3836C681.034 97.279 671.624 98.5864 668.635 101.276C665.056 104.497 664.164 110.214 663.136 114.84C652.5 137 669.2 149.321 679.487 143.875C689.774 138.429 692.281 135.648 694.078 129.357C694.786 126.878 684.679 98.5763 686.526 96.7299C690.094 93.1611 682.158 85.052 684.459 80.9109C685.729 78.624 696.026 72.9757 692.685 72.0209C691.287 71.6217 682.509 65.6023 686.819 65.3488C703.199 64.3852 718.686 69.3081 734.99 69.3081C753.885 69.3081 809.506 57.4875 818.5 39.5C823.473 29.553 830.5 17.2763 830.5 6" stroke="#3D1900" stroke-width="3" stroke-linecap="round"/>
</svg>
