<?xml version="1.0" encoding="UTF-8"?>
<svg id="Layer_2" data-name="Layer 2" xmlns="http://www.w3.org/2000/svg" xmlns:xlink="http://www.w3.org/1999/xlink" viewBox="0 0 692.93 161.43">
  <defs>
    <style>
      .cls-1, .cls-2 {
        fill: none;
      }

      .cls-2 {
        stroke: #231f20;
        stroke-linecap: square;
        stroke-miterlimit: 10;
        stroke-width: 3px;
      }

      .cls-3 {
        clip-path: url(#clippath);
      }
    </style>
    <clipPath id="clippath">
      <rect class="cls-1" width="661.13" height="139.63"/>
    </clipPath>
  </defs>
  <g class="cls-3">
    <path class="cls-2" d="M0,72.09c8.17,3.91,19.17,4.91,27.17.91,11-6,28-18,36-3-1.95,2.06-5.74,5.49-11.44,7.25-6.02,1.86-13.55,1.66-14.07-.27-.39-1.44,3.23-3.58,5.03-4.64,1.89-1.11,8.81-5.08,17.48-3.35,4.02.8,10.62,3.55,10.46,6.67-.05,1.02-.83,1.8-1.46,2.33-6.99,5.88-27.68,9.95-28.51,6.98-.39-1.38,3.69-3.7,5.32-4.48,2.91-1.39,5.62-1.54,7.19-1.5,4,1,9,3,12,7,1,3-1,6-5,5-6-2-14-4-18,2-3,7-8,13-7,21,2,8,11,10,18,11,7,0,17-5,15-14-2-8-11-14-9-24,4-19,27-17,41-11,22,9,45,4,68,0h9c1,0,2-2,2-2-5-8-15-2-23-4-2-1-5-2-5-4,0-5,7-8,12-8s10,1,13,6c6,8,0,18-8,21-5,2-12,2-16-3,3-6,11-6,15-2,3,3,3,6,2,10,0,0-1,1-2,1-4,1-7-5-11,1-1,2-1,4-2,6-7,8-15,17-10,28,5,10,18,15,28,8,7-5,7-15,3-23-4-10-7-20-1-30,1-1,2-3,3-5,.89-.69,2.31-1.78,4.12-3,25.59-17.28,49.59-9.58,95.88-10,36.91-.33,58.23-5.56,60.61,1.4,1.26,3.67-2.45,9.96-7.24,11.67-5.45,1.95-12.51-1.95-12.38-4.07.11-1.71,4.98-2.93,8.28-3.03,1.52-.05,3.4.26,5.72,1.03,3,1,7,4,5,8-1.46,2.91-7.57.3-13,4-3.73,2.54-4.84,6.6-6.5,13-3.33,12.88-5.18,20.02-.82,25.48,6.11,7.65,21.24,8.08,26.93,1.62,2.49-2.83,2.49-6.63,2.39-14.1-.26-18.76-6.37-22.24-3-31,2.78-7.23,7.27-10.31,5.5-14.87-1.11-2.85-4.36-5.02-7.4-5.28-3.63-.31-5.05,2.25-12.73,5.52-4.52,1.92-7,2.95-8.25,1.88-1.79-1.54-.63-7.3,3-10.25,3.08-2.51,6.9-2.13,7.88-2,1.08.36,4.13,1.53,5.5,4.5.24.51.4,1.02.5,1.5,3,4,7,8,13,8,36,2,72,6,109,1,14.07-1.9,20.39-7.01,29-13,13.86-9.64,17.01-18.18,29.34-20.34,7.39-1.29,18.1-.29,20.66,5.34,1.42,3.1-.17,6.45-.38,6.87-3.23,6.59-13.91,5.99-16,5.88-1.74-.1-9.98-.56-10.93-4.13-.91-3.43,5.08-8.98,11.3-9.87,2.01-.29,3.75-.04,5,.25,1.03.19,5.44,1.12,8.5,5.25.97,1.31,3.44,5.13,2.5,9.75-1.06,5.22-5.74,7.81-8.12,9.12-6.84,3.77-15.99,3.78-17.01,1.2-.62-1.59,1.93-3.9,2.51-4.43,4.37-3.95,12.63-4.58,16.62-.9,4.06,3.75.03,8.6,5,17,1.26,2.14,2.59,3.63,3.12,6.57.11.63.76,4.51-1.12,8.43-2.56,5.31-9.19,9.48-16,8-6.23-1.35-9.93-6.85-10.97-11.35-1.2-5.2,1.37-8.03,3.54-15.32,4.05-13.6-.54-18.34,2.36-25.79,5.11-13.14,26.41-16.44,32.22-17.34,29.41-4.56,43.69,12.81,68.86,3.81,6.95-2.49,12.33-6.13,13.87-7.2,11.77-8.21,17.89-18.75,20.79-24.8"/>
  </g>
</svg>